<svg xmlns="http://www.w3.org/2000/svg" width="48.009" height="48" viewBox="0 0 48.009 48"><g transform="translate(-41.9 -41.3)"><g transform="translate(45.579 45.167)"><path d="M101.421,320.551a7.882,7.882,0,0,1-7.706-6.251H81.1a20.266,20.266,0,0,0,40.379,0H109.127A7.873,7.873,0,0,1,101.421,320.551Z" transform="translate(-81.1 -292.543)" fill="#fff"/><path d="M345.6,332.284A20.275,20.275,0,0,0,361.153,314.3h-4.975C355.681,322.3,351.485,329.074,345.6,332.284Z" transform="translate(-320.774 -292.543)" fill="#dfdfdf"/><path d="M257.483,252.237h0a4.887,4.887,0,0,0-.3-1.624,4.637,4.637,0,0,0-8.982,1.624h.009a4.637,4.637,0,1,0,9.273,0Z" transform="translate(-232.516 -232.104)" fill="#fff"/><path d="M103.967,94.768a7.882,7.882,0,0,1,7.706,6.251h12.615a20.27,20.27,0,0,0-40.388-.009H96.261A7.874,7.874,0,0,1,103.967,94.768Z" transform="translate(-83.637 -82.5)" fill="#ff1c1c"/><path d="M354.366,105.177H359.6a20.282,20.282,0,0,0-16-18.077C349.588,90.263,353.859,97.105,354.366,105.177Z" transform="translate(-318.962 -86.668)" fill="#df1818"/></g><path d="M66.031,45.167A20.256,20.256,0,0,1,86.221,63.676H73.606a7.875,7.875,0,0,0-15.412,0H45.842A20.269,20.269,0,0,1,66.031,45.167Zm4.214,18.509a4.656,4.656,0,0,1,.291,1.624h.009a4.637,4.637,0,1,1-9.273,0h-.009a4.638,4.638,0,0,1,8.982-1.624ZM65.769,85.442A20.256,20.256,0,0,1,45.579,66.933H58.194a7.875,7.875,0,0,0,15.412,0H85.967A20.278,20.278,0,0,1,65.769,85.442ZM65.9,41.3a24,24,0,1,0,24.009,24A24,24,0,0,0,65.9,41.3Z"/></g></svg>